<?xml version="1.0" encoding="UTF-8" standalone="no"?>
<!-- Created with Inkscape (http://www.inkscape.org/) -->

<svg
   version="1.1"
   id="svg2"
   width="529.54669"
   height="451.92001"
   viewBox="0 0 529.54669 451.92001"
   sodipodi:docname="CRA_Logo.eps"
   xmlns:inkscape="http://www.inkscape.org/namespaces/inkscape"
   xmlns:sodipodi="http://sodipodi.sourceforge.net/DTD/sodipodi-0.dtd"
   xmlns="http://www.w3.org/2000/svg"
   xmlns:svg="http://www.w3.org/2000/svg">
  <defs
     id="defs6" />
  <sodipodi:namedview
     id="namedview4"
     pagecolor="#ffffff"
     bordercolor="#000000"
     borderopacity="0.25"
     inkscape:showpageshadow="2"
     inkscape:pageopacity="0.0"
     inkscape:pagecheckerboard="0"
     inkscape:deskcolor="#d1d1d1" />
  <g
     id="g8"
     inkscape:groupmode="layer"
     inkscape:label="ink_ext_XXXXXX"
     transform="matrix(1.3333333,0,0,-1.3333333,0,451.92)">
    <g
       id="g10"
       transform="scale(0.1)">
      <path
         d="m 2106.24,1170.91 c 18.2,-1.53 42.55,4.84 67.12,11 27.82,6.98 53.94,18.23 80.16,29.25 21.94,9.21 41.94,22.13 61.85,35.11 15.47,10.08 17.88,15.3 11.27,32.96 -2.99,7.98 -5.7,15.84 -5.94,24.37 -0.79,28.16 -14.64,54.26 -13.03,82.8 0.07,1.32 -0.62,2.73 -1.16,4.02 -10.64,25.48 -11.19,53.34 -16.52,79.87 -4.9,24.37 -10.14,49.17 -14.12,73.95 -5.84,36.41 -15.43,72.27 -20.75,108.91 -1,6.91 -3.15,13.65 -4.42,20.54 -4.94,26.76 -10.49,53.44 -14.34,80.37 -2.64,18.48 -4.1,21.08 -23.34,21.53 -4.9,0.12 -9.86,-0.01 -14.72,-0.61 -42.38,-5.28 -85.27,-3.15 -127.62,-11.72 -28.08,-5.69 -56.3,-8.12 -82.47,-21.8 -37.15,-19.43 -62.78,-48.7 -77.6,-87.02 -16.31,-42.19 -11.82,-86.85 -11.68,-130.78 0.09,-29.38 4.01,-58.24 9.05,-87.38 4.18,-24.12 9.19,-48.34 15.3,-71.65 9.27,-35.33 21.31,-70 37.88,-103.45 28.9,-58.33 71.28,-91.35 145.08,-90.27 z m -402.81,405.97 c 5.38,34.41 5.09,69.3 13.81,103.78 8.64,34.2 19.89,66.63 38.74,95.9 25.07,38.93 59.86,68.18 100.37,90.16 26.86,14.57 54.54,26.74 84.58,34.96 22.95,6.27 46.87,7.79 69.19,16.16 3.25,1.22 6.85,2.21 10.27,2.16 51.32,-0.81 101.73,11.41 153.03,10.78 4.91,-0.06 9.92,-0.26 14.7,0.63 10.78,2.01 13.9,7.54 10.74,18.15 -7.6,25.5 -11.03,51.84 -15.96,77.89 -5.45,28.84 -11.6,57.55 -17.42,86.33 -0.97,4.79 -2.41,9.57 -2.63,14.41 -0.57,12.69 -2.19,24.9 -7.18,36.92 -3.15,7.57 -3.97,16.39 -4.46,24.73 -0.76,12.71 -1.93,25.15 -7.64,36.81 -1.19,2.45 -1.77,5.4 -1.89,8.15 -0.74,16.88 -2.84,33.23 -9.4,49.23 -4.71,11.47 -1.38,15.02 11.16,16.01 25.82,2.03 50.52,9.94 75.89,14.35 13.76,2.4 27.05,7.32 41.32,6.95 7.14,-0.19 13.86,1.77 20.31,4.81 8.48,4 17.67,4.13 26.79,4.58 8.61,0.44 12.03,-3.45 13.44,-12.14 5.01,-31.05 11.3,-61.89 16.46,-92.92 4.8,-28.94 12.28,-57.31 17.2,-86.29 4.19,-24.69 8.81,-49.55 13.51,-74.25 5.6,-29.4 12.58,-58.5 17.22,-88.18 4.16,-26.66 7.48,-54.03 16.17,-79.96 5.6,-16.69 5.68,-34.37 9.22,-51.43 5.79,-27.9 12.64,-55.85 15.78,-84.41 2.59,-23.61 9.21,-46.62 13.67,-69.96 6.29,-32.91 10.88,-66.27 19.07,-98.7 6.7,-26.55 8.48,-53.79 15.39,-80.3 7.01,-26.92 9.99,-54.89 15.03,-82.35 4.67,-25.48 10.25,-50.81 14.49,-76.37 5.48,-33.06 13.12,-65.71 19.28,-98.63 4.06,-21.66 5.66,-44.31 14.22,-65.17 1.3,-3.18 1.86,-6.8 2.09,-10.26 1.23,-18.98 4.73,-37.4 10.34,-55.65 5.66,-18.41 0.43,-23.45 -17.78,-26.78 -30.1,-5.5 -60.78,-8.2 -90.17,-17.52 -5.93,-1.88 -12.34,-2.73 -18.58,-3.02 -11.28,-0.54 -21.99,-2.08 -32.77,-6.33 -16.55,-6.54 -24.73,-0.64 -27.17,17.41 -0.47,3.46 -0.25,7.08 -1.14,10.41 -2.06,7.81 -7.52,10.08 -14.45,6.58 -4.94,-2.49 -9.31,-6.2 -13.7,-9.68 -32.43,-25.69 -68.06,-45.73 -106.1,-61.95 -19.84,-8.47 -39.12,-18.38 -60.33,-22.98 -49.86,-10.83 -99.45,-23.502 -151.42,-15.099 -25.53,4.121 -50.8,7.429 -75.27,17.159 -36.55,14.53 -67.68,35.91 -93.75,65.04 -25.27,28.22 -45.61,59.73 -60.89,94.33 -14.04,31.8 -25.72,64.51 -36.31,97.65 -12.97,40.61 -21.49,82.38 -29.07,124.09 -7.49,41.2 -17.02,82.61 -13.97,125.11 1.41,19.77 -7.01,38.79 -4.03,58.7"
         style="fill:#f7951b;fill-opacity:1;fill-rule:nonzero;stroke:none"
         id="path12" />
      <path
         d="m 1141.61,972.988 c 29.48,-1.906 54.81,7.352 80.26,14.5 24.76,6.961 48.81,16.322 72.83,25.862 24.05,9.55 47.59,19.74 69.94,32.51 18.5,10.56 22.93,20.87 15.05,40.32 -9.58,23.67 -11.81,49.12 -16.26,73.36 -5.4,29.41 -12.57,58.89 -15.06,88.91 -0.77,9.29 -4.84,17.54 -6.64,26.36 -2.27,11.13 -8.91,12.45 -18.34,12.19 -19.85,-0.54 -37.1,-10.5 -55.92,-14.93 -30.3,-7.14 -59.53,-18.71 -89.75,-26.22 -11,-2.74 -20.61,-9.07 -31.51,-10.48 -27.34,-3.54 -50.23,-15.84 -70.69,-33.4 -20.26,-17.38 -35.44,-38.64 -38.62,-65.45 -4.72,-39.77 1.67,-78.29 22.05,-113.26 18.74,-32.17 44.54,-53.94 82.66,-50.272 z m 432.31,-65.297 c -34.26,-5.121 -69.71,3.899 -105.13,12.52 -5.91,1.437 -11.24,5.449 -16.68,8.559 -11.79,6.75 -22.82,5.152 -33.4,-2.641 -36.75,-27.027 -76.34,-49.637 -118.19,-67.129 -38.59,-16.129 -79.01,-27.41 -119.97,-37.379 -42.49,-10.34 -84.58,-9.91 -127.35,-8.41 -29.78,1.039 -56.005,12.859 -80.782,27.008 -41.492,23.691 -67.617,60.293 -87.742,103.742 -22.121,47.758 -30.77,98.269 -39.168,148.889 -4.793,28.88 -0.18,58.2 8.57,87.14 10.797,35.7 26.824,67.64 55.031,91.79 27.106,23.21 57.305,42.45 90.141,56.91 46.12,20.31 95.04,31.76 143.26,45.68 29.29,8.46 58.96,15.98 88.03,25.71 18.69,6.25 38.14,13.24 58.5,15.47 19.63,2.16 24.6,8.95 20.26,28.28 -6.72,29.94 -9.9,60.59 -21.53,89.6 -11.57,28.84 -33.22,45.59 -59.74,58.05 -3.01,1.41 -6.9,1.41 -10.36,1.35 -31.41,-0.57 -62.45,1.14 -93.91,-7.63 -21.09,-5.87 -43.27,-10.99 -65.55,-13.74 -18.64,-2.31 -36.14,-9.88 -54.79,-13.38 -25.975,-4.88 -51.783,-12.39 -76.963,-20.14 -29.902,-9.21 -61.266,-13.27 -90.121,-25.81 -5.859,-2.55 -9.398,-0.44 -11.688,4.88 -1.664,3.86 -3.585,7.7 -4.574,11.75 -6.437,26.49 -12.945,52.96 -18.73,79.59 -1.375,6.33 -4.086,11.74 -6.457,17.54 -4.059,9.94 -1.438,15.73 8.66,19.82 37.906,15.34 75.601,31.16 114.176,44.91 12.953,4.62 26.761,7.79 38.906,14.98 12.328,7.3 26.976,6.58 40.391,10.79 50,15.7 100.91,27.73 152.47,38 39.25,7.82 78.18,9.44 117.06,7.1 56,-3.36 106.44,-24.65 145.6,-65.57 20.17,-21.06 33.61,-47.98 44.88,-75.32 17.13,-41.53 26.18,-84.95 34.38,-129.02 4.58,-24.59 7.88,-49.64 14.7,-74.08 7.28,-26.11 7.8,-54.11 15.14,-80.19 7.61,-27.06 7.16,-55.54 16.94,-81.96 0.48,-1.32 1.27,-2.69 1.22,-4.01 -1.17,-28.5 10.28,-54.87 14.32,-82.57 3.55,-24.36 5.6,-49.86 18.48,-72.31 13.98,-24.35 34.82,-37.46 62.53,-39.23 22.06,-1.4 22.46,-1.1 23.27,-22.62 0.37,-9.88 1.45,-19.51 4.28,-29.04 3.81,-12.828 5.96,-26 5.73,-39.461 -0.19,-10.769 3.59,-20.597 6.64,-30.687 3.76,-12.453 1.8,-16.602 -10.28,-21.024 -11.88,-4.347 -24.41,-6.519 -37.12,-6.656 -16.85,-0.191 -33.7,-0.051 -53.34,-0.051"
         style="fill:#f7951b;fill-opacity:1;fill-rule:nonzero;stroke:none"
         id="path14" />
      <path
         d="m 3434.97,1415.5 c 25.58,-0.06 45.86,2.61 66.52,8.31 22.06,6.09 44.3,11.34 64.47,22.01 26.72,14.14 50.97,31.21 64.91,59.98 9.85,20.35 16.16,40.57 17.74,63.64 3.34,48.52 3.47,97.04 -4.99,144.54 -7.3,40.95 -13.97,82.19 -26.29,122.43 -13.38,43.67 -28.19,85.88 -54.23,123.9 -16.49,24.08 -38.31,41.95 -64.27,52.31 -50.76,20.24 -102.04,9.9 -152.42,-4.4 -12.6,-3.58 -24.45,-9.81 -36.66,-14.79 -24.7,-10.08 -44.11,-27.14 -59.76,-48.04 -22.23,-29.69 -25.85,-65.75 -30.27,-100.89 -3.69,-29.38 1.05,-58.92 5.35,-88 2.27,-15.31 -0.53,-31.19 4.88,-45.87 9.29,-25.15 9.66,-52.09 16.86,-77.84 5.76,-20.62 12.02,-41.16 17.78,-61.81 7.88,-28.31 21.65,-53.98 35.57,-79.64 13.02,-23.98 31.11,-42.8 54.72,-56.25 26.21,-14.94 54.19,-22.72 80.09,-19.59 z m 403.01,215.68 c 0,-21.05 1.18,-42.19 -0.24,-63.14 -3.09,-45.78 -16.96,-88.52 -36.37,-130.14 -22.8,-48.93 -59.42,-83.1 -104.83,-110.16 -30.78,-18.34 -63.53,-30.75 -97.22,-42.52 -37.95,-13.27 -77.6,-16.9 -116.02,-26.82 -10.02,-2.59 -20.9,-2.28 -31.4,-2.42 -25.26,-0.32 -50.53,-0.15 -75.8,-0.12 -17.53,0.01 -34.44,1.55 -51.66,7.09 -15.66,5.04 -32.26,6.76 -48.15,12.95 -45.63,17.76 -82.07,47.08 -112.52,84.47 -30.61,37.61 -51.06,81.28 -71.48,124.74 -6.1,12.97 -7.57,27.87 -12.92,41.64 -14.38,37.02 -21.58,76.24 -30.8,114.78 -10.96,45.79 -14.6,92.49 -14.63,139.58 -0.03,37.89 -1.02,75.77 3.78,113.48 3.55,27.87 11.58,54.58 22.57,80.27 10.11,23.65 21.47,46.51 37.59,67.16 26.82,34.37 60.79,58.64 98.56,79.55 30.92,17.13 64.15,27.76 97.3,37.51 23.74,6.98 48.01,16.06 73.8,14.93 2.08,-0.09 4.31,0.04 6.26,0.69 35.47,11.7 72.14,9.21 108.53,8.77 43.08,-0.51 83.83,-11.33 123.66,-27.78 62.59,-25.85 102.97,-74.31 137.06,-129.76 20.88,-33.98 36.55,-70.54 49.08,-108.19 9.89,-29.74 16.25,-60.64 24.65,-90.91 9.2,-33.16 11.94,-67.48 18.56,-101.12 6.1,-31.04 2.09,-63 2.64,-94.53"
         style="fill:#f7951b;fill-opacity:1;fill-rule:nonzero;stroke:none"
         id="path16" />
      <path
         d="m 2554.49,3143.27 c 41.79,4.68 81.52,-9.2 116.87,-32.98 35.17,-23.65 62.05,-55.71 80.57,-94.79 11.39,-24.02 11.68,-50.1 18.35,-74.93 3.33,-12.41 -2.63,-24.93 -3.35,-37.51 -3.69,-64.62 -36.82,-112.87 -85.11,-152.65 -2.7,-2.22 -5.31,-5.5 -8.41,-6.14 -17.96,-3.71 -18.2,-16.36 -16.63,-30.59 3.84,-34.82 13.7,-68.5 19.33,-102.89 4.18,-25.56 11.16,-50.47 14.7,-76.16 3.71,-26.87 10.91,-53.24 15.18,-80.05 4.4,-27.65 14.02,-54.35 15.29,-82.47 0.53,-11.62 6.52,-21.39 8.32,-32.49 4.24,-26.21 8.92,-52.34 13.47,-78.49 3.24,-18.6 7.53,-37.19 12.05,-55.3 6.46,-25.9 8.99,-52.38 14.6,-78.35 5.72,-26.48 11.37,-53.27 16.05,-80.11 4.3,-24.69 9.13,-49.49 14.64,-74.07 6.43,-28.65 10.11,-57.93 16.85,-86.5 6.27,-26.54 8.38,-53.87 16.51,-80.02 6.04,-19.4 6.56,-39.93 10.66,-59.83 5.2,-25.26 11.61,-50.45 15.13,-76.2 3.49,-25.57 10.19,-50.69 15.21,-76.06 5.15,-26.03 9.29,-52.28 15.11,-78.16 6.91,-30.73 10.78,-62.01 18.11,-92.7 4.68,-19.61 6.86,-39.86 11.34,-59.67 7.71,-33.99 13.16,-68.45 21.17,-102.43 7.85,-33.32 -2.85,-62.76 -26.01,-86.8 -19.93,-20.68 -55.25,-19.35 -77.95,1.56 -19.11,17.61 -30.02,39.57 -33.67,65.53 -2.82,20 -8.37,39.51 -11.71,59.52 -5.51,33 -12.62,65.89 -20.12,98.41 -6.44,27.93 -10.02,56.38 -16.22,84.32 -5.41,24.35 -9.95,49.32 -14.37,74.1 -4.9,27.44 -11.03,54.65 -16.23,82.04 -5.23,27.47 -8.12,55.54 -15.47,82.41 -7.03,25.68 -6.73,52.77 -16.7,77.72 -1.78,4.45 -2.65,9.52 -2.74,14.32 -0.25,13.49 -4.73,26.17 -6.78,39.19 -4.56,28.96 -13.22,57.16 -15.46,86.52 -0.42,5.51 -1.32,11.33 -3.57,16.29 -5.36,11.79 -7.68,23.95 -7.53,36.79 0.22,18.48 -8.99,34.95 -10.8,53.38 -2.38,24.22 -10.04,47.88 -14.76,71.91 -5.79,29.53 -10.62,59.25 -16.39,88.79 -4.93,25.22 -10.59,50.3 -15.97,75.44 -0.88,4.11 -2.87,8.17 -2.87,12.25 0.01,26.19 -9.43,50.79 -13.78,76.18 -4.58,26.74 -9.11,53.78 -15.32,80.4 -6.36,27.22 -10.59,54.95 -15.33,82.54 -2.93,17.07 -7.64,33.87 -11.33,50.65 -5.71,25.9 -7.27,52.68 -15.72,78.02 -2.19,6.57 -2.89,13.71 -3.6,20.66 -2.25,21.83 -7.36,29.43 -27.65,33.84 -52.81,11.46 -91.21,43.5 -122.03,85.54 -16.06,21.89 -26.53,46.63 -31.51,74.08 -3.36,18.51 -10.6,36.4 -8.43,55.64 8.7,77.46 38.78,141.93 109.59,182.4 34.99,20 71.84,30.65 114.42,27.9"
         style="fill:#f7951b;fill-opacity:1;fill-rule:nonzero;stroke:none"
         id="path18" />
      <path
         d="m 334.434,1579.47 c 10.382,0.87 15.386,-3.57 15.507,-10.49 0.379,-21.97 9.418,-42.21 11.641,-63.74 0.359,-3.48 0.168,-7.01 0.438,-10.51 0.398,-5.14 2.019,-9.72 7.421,-11.59 5.567,-1.93 8.844,1.62 12.707,5.01 20.485,17.92 41.215,35.56 61.934,53.21 43.285,36.87 92.465,64.71 142.352,91.18 13.437,7.12 28.386,11.37 41.386,19.96 7.414,4.9 12.801,1.86 15.746,-7.03 0.872,-2.64 1.52,-5.51 1.493,-8.26 -0.286,-26.91 8.511,-52.53 13.238,-78.49 4.422,-24.31 6.34,-49.79 16.383,-73.17 4.312,-10.05 1.777,-14.57 -9.055,-19.39 -46.449,-20.66 -93.281,-40.73 -137.73,-65.34 -34.657,-19.19 -68.864,-39.54 -100.844,-63.21 -2.809,-2.08 -5.199,-5.91 -8.18,-6.37 -16.437,-2.54 -17.023,-14.18 -16.273,-26.76 0.461,-7.69 -0.336,-15.91 2.121,-22.95 9.531,-27.3 11.398,-56.21 17.453,-84.17 5.433,-25.07 11.473,-50.37 14.641,-76.17 2.539,-20.67 8.261,-41.01 11.507,-61.77 4.207,-26.94 11.071,-53.46 15.153,-80.42 4.297,-28.359 9.863,-56.648 16.242,-84.371 10.039,-43.629 14.883,-88.199 26.183,-131.508 3.168,-12.129 4.61,-24.781 6.067,-37.281 1.34,-11.488 -2.051,-15.199 -13.074,-17.309 -51.528,-9.871 -103.653,-16.722 -154.414,-30.39 -9.684,-2.61 -14.914,0.328 -16.883,9.769 -3.563,17.102 -10.403,33.449 -10.324,51.391 0.078,18.359 -7.473,35.508 -10.95,53.281 -5.492,28.066 -8.039,56.816 -16.48,84.309 -5.125,16.699 -6.367,34.25 -9.719,51.218 -5.539,28.039 -11.234,56.27 -15.797,84.611 -4.07,25.3 -8.062,51.04 -15.672,75.8 -0.617,2.01 -1.875,3.99 -1.894,5.99 -0.281,26.14 -9.703,50.76 -12.774,76.31 -3.261,27.16 -11.746,53.1 -15.461,80.1 -4.191,30.45 -11.863,60.32 -17.418,90.55 -5.031,27.39 -9.851,55.02 -15.5,82.38 -5.343,25.9 -12.957,51.54 -15.304,78.05 -0.809,9.12 -1.621,17.85 -5.762,26.43 -4.918,10.18 -2.234,14.93 8.305,19.22 1.297,0.53 2.64,1.3 3.969,1.32 28.285,0.42 54.562,11.91 82.625,14.52 22.742,2.12 45.082,8.69 67.566,13.45 3.355,0.71 6.523,2.3 7.43,2.63"
         style="fill:#f7951b;fill-opacity:1;fill-rule:nonzero;stroke:none"
         id="path20" />
      <path
         d="m 2755.59,161.07 c -4.35,-0.55 -9.69,3.27 -15.33,9.84 -41.91,48.84 -84.47,97.121 -126.67,145.719 -10.09,11.621 -19.78,23.609 -29.25,35.762 -7.35,9.418 -15.69,11.929 -27.61,9.019 -15,-3.66 -28.55,-11.531 -44.13,-13.469 -9.32,-1.16 -13.28,-9.011 -10.76,-17.312 7.79,-25.559 6.02,-52.981 15.87,-78.047 1.02,-2.602 1.93,-5.383 2.13,-8.133 2.76,-37.051 14.66,-72.41 20.03,-108.969 2.35,-16.031 1.2,-15.269 -13.28,-18.839 -27.04,-6.68 -55.13,-7.481 -81.76,-15.899 -14.93,-4.7107 -16.51,-2.4803 -21.28,12.988 -8.29,26.86 -11.56,54.809 -17.08,82.09 -4.93,24.399 -9.3,49.418 -13.99,73.961 -5.5,28.731 -7.46,58.27 -16.73,86.328 -2.16,6.551 -2.34,13.782 -3.27,20.723 -0.83,6.238 -0.67,12.719 -2.27,18.738 -9,33.789 -12.3,68.86 -20.68,102.45 -6.76,27.109 -8.98,54.89 -16.36,81.949 -6.15,22.531 -9.66,46.492 -13.67,69.929 -5.18,30.34 -11.42,60.493 -16.68,90.782 -4.65,26.789 -12.91,52.949 -14.51,80.269 -0.59,9.973 -4.35,19.063 -7.37,28.41 -5.72,17.672 -1.46,25.2 16.91,27.633 29.11,3.86 57.66,10.469 86.28,16.68 7.16,1.547 10.34,-2.68 10.24,-6.973 -0.42,-17.961 9.46,-33.301 11.29,-50.898 2.59,-24.871 8.06,-49.563 13.92,-73.93 3.13,-13.019 6.18,-25.859 6.98,-39.223 0.2,-3.5 -0.14,-7.339 1.21,-10.398 11.21,-25.461 11.66,-53.371 16.6,-80 4.95,-26.75 11.87,-53.191 15.3,-80.379 3.92,-31.191 11,-62.07 19.52,-92.492 1.96,-6.988 5.6,-12.527 13.16,-9.559 12.46,4.899 25.67,6.821 38.35,10.731 16.38,5.058 24.14,16.32 28.92,30.34 7.42,21.738 14.69,43.5 23.22,64.859 13.14,32.922 25.56,66.129 38.14,99.27 4.94,13.019 9.85,26.082 14.02,39.351 2.65,8.43 7.03,12.609 16.27,13.301 26.56,1.976 51.5,13.348 78.58,13.609 8,0.071 15.81,5.52 23.98,7.219 9.52,1.98 12.51,-1.75 10.81,-11.539 -1.47,-8.41 -5.83,-15.563 -9.27,-23.199 -11.76,-26.114 -22.38,-53.043 -30.93,-80.043 -7.81,-24.637 -19.08,-47.848 -26.23,-72.758 -8.01,-27.902 -20.51,-54.641 -32.76,-81.102 -4.79,-10.328 -3.18,-16.879 3.51,-24.449 10.66,-12.051 20.94,-24.449 31.42,-36.68 51.91,-60.55 103.83,-121.101 155.79,-181.609 5.94,-6.922 12.72,-13.172 18.08,-20.5 5.78,-7.891 3.61,-14.43 -5.59,-15.242 -34.21,-3.027 -66.98,-13.137 -100.53,-19.328 -2.75,-0.512 -5.59,-0.461 -12.54,-0.981"
         style="fill:#f6951c;fill-opacity:1;fill-rule:nonzero;stroke:none"
         id="path22" />
      <path
         d="m 1982.57,98.6992 c 10.75,-0.9687 20.06,1.9418 29.63,4.4418 35.21,9.218 68.35,23.839 101.83,37.64 15.71,6.469 20.87,14.739 17.75,32.309 -6.84,38.48 -14.25,76.859 -21.62,115.242 -2.34,12.227 -6.78,15.219 -19.18,11.598 -24.7,-7.211 -49.38,-14.75 -74.14,-21.508 -22.4,-6.113 -44.15,-12.371 -64.64,-23.543 -15.54,-8.469 -27.58,-19.777 -32.09,-36.688 -9.14,-34.281 -4.8,-67.293 17.09,-95.711 10.98,-14.25 24.62,-27.8511 45.37,-23.7808 z m 60.2,499.0508 c 29.75,-2.762 59.72,-2.379 86.32,-21.09 27.13,-19.07 44.34,-44.601 54.84,-74.719 11.24,-32.222 17.2,-65.832 23.85,-99.371 5.15,-26 8.89,-52.371 14.49,-78.359 5.87,-27.219 13.14,-54.32 15.43,-82.441 1.69,-20.75 8.37,-40.872 15.55,-60.54 4.36,-11.968 12.54,-18.531 25.06,-22.781 31.95,-10.82 31.77,-11.57 32.92,-45.109 0.39,-11.328 2,-22.3986 6.1,-32.9611 3.91,-10.1094 -0.43,-14.3476 -10.06,-15.6875 -27.06,-3.7695 -54.12,-8.1719 -81.43,-2.7422 -15.66,3.1211 -31.77,3.1992 -46.77,11.043 -8.11,4.2266 -18.03,3.1172 -27.45,-3.7734 C 2119.36,45.6211 2083.36,28.582 2045.55,16.1406 2003.9,2.44141 1960.59,-4.12109 1917.12,2.73828 c -34.1,5.38281 -61.94,23.31252 -81.62,53.41012 -27.32,41.7735 -37.07,88.5236 -39.04,136.8636 -2.45,60.23 30.25,99.488 81.91,125.199 14.32,7.129 28.88,13.871 43.74,19.73 12.24,4.821 25.57,6.739 38.23,9.95 30.45,7.73 59.78,19.5 90.83,24.949 4.76,0.84 9.31,3 13.91,4.699 24.1,8.883 25.67,9.922 21.5,34.34 -2.91,17.031 -7.5,34 -15.55,49.672 -16.73,32.539 -51.64,37.82 -77.44,32.008 -41.57,-9.348 -83.61,-17.297 -124.32,-29.579 -18.59,-5.609 -38.54,-6.589 -56.07,-15.898 -3.63,-1.922 -7.95,-2.781 -12.05,-3.5 -14.44,-2.531 -14.71,-0.973 -21.32,12.719 -8.29,17.168 -6.31,37.019 -16.37,53.801 -4.36,7.25 3.15,13.179 9.94,15.789 21.97,8.441 43.9,17.05 65.78,25.621 25.5,9.976 51.8,17.09 77.77,24.988 24.47,7.449 49.11,16.34 75.44,16.352 16.85,0 33.34,5.289 50.38,3.898"
         style="fill:#f6951c;fill-opacity:1;fill-rule:nonzero;stroke:none"
         id="path24" />
      <path
         d="m 3971.27,933.492 c -7.81,-40.07 -3.29,-85.453 -8.97,-129.844 -7.67,-60.019 -3.75,-120.718 -12.35,-180.359 -6.76,-46.82 -4.57,-93.777 -8.18,-140.57 -2.21,-28.649 -8.2,-56.93 -8.34,-85.809 -0.05,-10.051 -6.05,-14.64 -16.13,-15.601 -32.09,-3.059 -63.01,-12.739 -94.66,-17.688 -26.32,-4.121 -52.1,-10.562 -78.34,-14.621 -18.46,-2.859 -23.17,0.551 -31.16,17.371 -22.41,47.16 -45.05,94.199 -67.29,141.438 -27.36,58.082 -54.16,116.433 -81.68,174.433 -16.67,35.149 -35.62,69.289 -50.9,105.008 -9.36,21.871 -20.23,42.77 -31.07,63.801 -5.73,11.121 -3.57,14.109 8.84,16.769 28.66,6.141 57.93,9.211 86.1,17.871 17.04,5.239 21.88,2.161 29.16,-13.871 15.82,-34.8 32.37,-69.269 48.17,-104.082 12.1,-26.648 23.36,-53.687 35.29,-80.418 9.62,-21.558 21.19,-42.379 29.18,-64.5 9.75,-26.98 24.05,-51.75 34.8,-78.199 9.7,-23.832 20.72,-47.141 31.52,-70.512 4.53,-9.789 11.54,-11.89 24.82,-9.211 10.15,2.051 17.74,4.481 18.6,18.024 3.43,53.879 7.49,107.648 8.05,161.738 0.46,44.781 6.14,89.469 8.42,134.262 2.14,42.039 2.83,84.16 4.19,126.238 0.21,6.289 -0.36,12.68 2.05,18.738 3.93,9.922 10.57,16.633 21.76,17.082 23.22,0.93 44.49,13.411 68.23,11.309 2.61,-0.23 5.44,1.203 8.05,2.152 19.23,6.969 23.47,3.809 21.84,-20.949"
         style="fill:#f6951c;fill-opacity:1;fill-rule:nonzero;stroke:none"
         id="path26" />
      <path
         d="m 3118.74,221.34 c -11.22,0 -22.44,-0.059 -33.67,0.012 -36.71,0.23 -62.09,19.91 -79.72,49.64 -16.8,28.34 -26.12,59.758 -34.45,91.789 -5.82,22.391 -8.09,45.289 -14.12,67.598 -7.3,26.973 -9.44,55.113 -14.86,82.621 -6.35,32.199 -12,64.52 -19.58,96.492 -1.92,8.098 -1.51,16.727 -2.66,25.047 -1.83,13.27 -8.23,17.371 -21.7,14.91 -13.07,-2.379 -26.27,-4.097 -39.31,-6.668 -10.35,-2.051 -16.24,2.438 -19.02,11.75 -1.4,4.66 -2.19,9.61 -2.49,14.469 -1.04,16.859 -3.55,33.23 -9.06,49.422 -5.73,16.828 -2.16,21.637 15.65,22.668 12.89,0.75 24.54,5.672 36.82,8.34 9.33,2.031 13.37,8.672 11.02,17.172 -5.42,19.589 -0.59,40.937 -10.78,59.699 -1.91,3.508 -2.13,8.148 -2.4,12.308 -1.1,16.832 -3.59,33.231 -9.1,49.379 -5.83,17.102 -2.04,21.852 15.11,26.594 22.3,6.16 45.92,5.988 67.71,14.789 4.93,1.988 11.09,0.961 16.69,1.289 10.46,0.61 14.94,-4.789 16.42,-14.789 5,-33.762 10.05,-67.551 19.24,-100.5 2.12,-7.621 1.28,-15.351 2.32,-22.949 1.93,-14.281 9.28,-18.633 23.43,-15.91 32.17,6.207 63.65,16.16 96.61,18.097 6.58,0.379 11.76,4.012 17.52,6.5 11.72,5.082 16.17,2.18 20.01,-9.75 7.93,-24.687 8.24,-51.05 16.94,-75.539 1.36,-3.82 -0.87,-6.59 -3.42,-9.218 -5.14,-5.313 -11.39,-7.954 -18.69,-8.493 -37.14,-2.789 -72.91,-13.461 -109.59,-18.98 -16.13,-2.418 -15.77,-5.188 -14.77,-22.418 1.77,-30.32 9.83,-59.531 15.69,-88.871 4.89,-24.5 5.66,-50.129 15.33,-73.719 1.57,-3.832 2.32,-8.172 2.61,-12.332 2.74,-38.598 14.6,-75.328 22.98,-112.769 2.32,-10.391 7.34,-19.629 14.65,-27.5 6.47,-6.95 13.82,-11.321 23.93,-10.918 19.46,0.769 38.44,-0.243 57.77,7.367 15.08,5.941 32.91,5.121 48.78,11.281 6.14,2.371 11.08,-0.82 12.57,-7.52 3.02,-13.558 12.13,-25.41 10.69,-40.3 -0.71,-7.219 3.97,-13.25 6.53,-19.75 6.29,-15.969 4.08,-21.961 -12.26,-28.571 -43.46,-17.57 -87.29,-33.961 -135.37,-31.769"
         style="fill:#f6951c;fill-opacity:1;fill-rule:nonzero;stroke:none"
         id="path28" />
      <path
         d="m 1993.24,2915 c 0,17.55 -0.85,35.15 0.19,52.65 1.87,31.45 9.43,61.81 18.08,92.11 9,31.52 20.02,62.06 33.47,91.91 12.09,26.82 25.66,52.71 43.01,76.46 12.83,17.56 30.76,23.06 47.83,15.58 21.64,-9.49 33.32,-29.39 26.95,-50.87 -3.23,-10.89 -11.36,-20.38 -17.5,-30.36 -23.2,-37.72 -42.19,-77.6 -53.65,-120.23 -12.2,-45.43 -18.7,-92.08 -16.58,-139.41 1.48,-32.82 4.72,-65.21 11.51,-97.75 15.18,-72.75 49.42,-135.05 92.97,-194 30.1,-40.74 68.93,-71.03 108.05,-101.74 28.73,-22.57 22.81,-51.81 0.66,-68.87 -12,-9.25 -33.41,-9.18 -47.42,0.7 -50.39,35.53 -98.03,73.69 -133.41,125.71 -15.65,23.01 -32.58,45.26 -45.61,69.8 -14.57,27.47 -28.01,55.5 -38.53,85.04 -12.22,34.31 -19.09,69.74 -26.71,105.04 -6.28,29.05 -2.71,58.79 -3.31,88.23"
         style="fill:#f6951c;fill-opacity:1;fill-rule:nonzero;stroke:none"
         id="path30" />
      <path
         d="m 3130.14,2902.67 c 3.68,-26.14 -4.56,-61.62 -10.71,-96.38 -6.86,-38.83 -19.43,-76.9 -34.99,-113.87 -13.04,-31 -29.24,-59.84 -46.17,-88.6 -4.02,-6.84 -8.75,-12.89 -14.36,-17.83 -16.41,-14.49 -33.26,-14.27 -51.11,-0.53 -14.58,11.21 -20.66,31.7 -12.33,48.21 9.73,19.29 22.18,37.22 31.68,56.62 20.89,42.63 36.04,86.95 45.04,134.07 8.27,43.25 12.37,86.12 7.1,129.48 -3.42,28.2 -9.37,56.09 -16.01,83.97 -7.55,31.74 -19.19,61.28 -33.63,89.65 -37.73,74.11 -90.37,135.85 -159.24,183.2 -24.46,16.82 -29.03,48.14 -9.85,66.72 14.39,13.94 35.87,16.31 53.76,3.91 42.63,-29.56 81.92,-62.62 115.42,-102.94 31.49,-37.9 57.6,-78.9 79.95,-122.4 9.5,-18.5 16.89,-38.39 22.75,-58.38 5.86,-19.96 13.3,-39.35 17.58,-60.03 8.56,-41.33 14.04,-82.73 15.12,-134.87"
         style="fill:#f6951c;fill-opacity:1;fill-rule:nonzero;stroke:none"
         id="path32" />
      <path
         d="m 720.953,2298.34 c -20.574,-5.97 -43.75,-11.54 -63.605,-25.36 -9.578,-6.66 -11.883,-15.97 -8.797,-27.79 8.48,-32.49 13.133,-65.89 20.687,-98.5 6.164,-26.6 5.707,-54.52 16.43,-80.08 0.809,-1.92 1.25,-4.03 1.625,-6.09 5.531,-30.25 3.656,-33.11 -26.594,-36.18 -10.777,-1.09 -22.418,-9.03 -32.347,-0.54 -8.832,7.56 -2.993,20.15 -6.364,29.99 -7.972,23.25 -11.761,47.82 -15.254,71.66 -4.156,28.37 -11.925,55.89 -16.371,84.15 -4.097,26.06 -7.203,52.64 -14.269,78.3 -1.86,6.76 -3.52,13.6 -4.703,20.49 -1.297,7.56 1.98,12.64 9.949,12.73 11.473,0.14 21.988,2.39 32.082,8.34 7.414,4.38 15.031,1.24 21.473,-3.72 8.152,-6.28 13.777,-4.32 21.769,2.31 33.859,28.1 73.969,29.95 115.309,24.5 2.043,-0.27 4.547,-0.68 5.898,-1.99 14.957,-14.54 27.633,-6.75 40.598,3.44 26.511,20.84 57.84,31.61 90.156,37.42 43.336,7.8 78.949,-11.79 97.675,-55.99 16.66,-39.31 21.94,-80.5 30.06,-121.47 5.29,-26.66 8.9,-53.71 17.11,-79.77 1.25,-3.98 1.95,-8.18 2.46,-12.34 2.56,-21 1.85,-22.24 -19.05,-25.16 -7.92,-1.11 -14.34,-5.58 -21.72,-7.63 -15.867,-4.4 -20.941,-0.04 -23.629,16.06 -4.363,26.13 -10.066,52.04 -15.176,78.05 -5.261,26.77 -8.312,53.89 -14.175,80.61 -3.5,15.94 -9.914,30.73 -17.051,44.57 -10.574,20.49 -31.582,27.08 -58.66,19.81 -15.938,-4.28 -32.121,-9.67 -45.828,-19.97 -11.586,-8.71 -12.325,-12.15 -8.118,-26.32 3.586,-12.05 6.895,-24.34 8.594,-36.76 4.176,-30.53 11.617,-60.49 17.672,-90.55 5.059,-25.09 6.59,-51.23 15.762,-75.38 3.125,-8.23 0.316,-12.21 -5.867,-15.13 -14.836,-7 -31.329,-6.71 -47.082,-9.65 -4.457,-0.83 -8.086,2.31 -9.422,6.8 -3.196,10.74 -7.922,21.41 -8.754,32.36 -1.395,18.31 -7.117,35.83 -9.047,53.62 -2.957,27.3 -11.367,53.36 -14.699,80.57 -2.024,16.53 -8.317,33.8 -17.879,48.77 -8.973,14.03 -21.809,20.99 -40.848,21.82"
         style="fill:#f6951c;fill-opacity:1;fill-rule:nonzero;stroke:none"
         id="path34" />
      <path
         d="m 3367.75,841.961 c 12.99,1.051 17.88,-5.359 17.29,-13.762 -1.78,-25.73 8.47,-49.5 12.34,-74.179 4.06,-25.872 8.79,-52.129 15.05,-77.891 6.42,-26.399 10.33,-53.41 15.46,-80.129 5.26,-27.391 10.71,-54.738 16,-82.129 4.63,-24.019 10.75,-47.891 13.31,-72.129 2.88,-27.281 10.68,-53.531 14.74,-80.562 2.32,-15.45 6.75,-31.09 8.62,-46.961 1.76,-14.977 1.4,-15.949 -12.12,-19.09 -14.31,-3.328 -28.71,-6.527 -43.26,-8.457 -12.56,-1.66 -24.74,-3.781 -36.8,-8.012 -17.83,-6.25 -22.34,-2.539 -25.09,15.699 -5.09,33.871 -13.42,67.25 -18.39,101.012 -4.08,27.738 -11.8,54.629 -15.35,82.449 -3.09,24.18 -10.34,47.809 -14.28,71.922 -4.72,28.867 -12.05,57.199 -16.14,86.227 -3.59,25.511 -10.43,50.543 -15.31,75.89 -5.94,30.852 -12.1,61.711 -16.68,92.782 -2.58,17.539 0.29,17.949 17.23,21.031 24.69,4.476 49.14,10.25 74.02,13.808 4.1,0.59 8.07,2.129 9.36,2.481"
         style="fill:#f6951c;fill-opacity:1;fill-rule:nonzero;stroke:none"
         id="path36" />
      <path
         d="m 1310,2267.34 c 0.35,0.01 0.71,0.01 1.06,0.02 -0.78,11.17 -0.59,22.5 -2.53,33.46 -5.02,28.28 -11.73,56.1 -33.35,77.26 -10.3,10.1 -21.86,15.85 -37.3,15.88 -22.3,0.04 -40.13,-10.29 -58.01,-20.86 -18.01,-10.64 -22.35,-18.8 -15.54,-38.12 5.95,-16.88 8.02,-33.94 9.47,-51.24 1.08,-12.85 10.01,-23.48 9.47,-36.3 -0.79,-18.65 6.77,-35.62 9.57,-53.51 1.65,-10.6 9.25,-17.68 19.01,-15.3 22.8,5.55 47.28,1.7 68.91,14.79 16.82,10.19 28.44,22.23 29.18,42.46 0.38,10.48 0.06,20.97 0.06,31.46 z m 69.31,-20 c 1.4,-22.56 -7.59,-45.43 -17.66,-67.8 -3.69,-8.2 -11.56,-13.67 -19.12,-18.88 -32.75,-22.55 -69.54,-31.78 -108.68,-33.46 -4.21,-0.18 -8.49,0.32 -12.61,-0.3 -11.64,-1.75 -15.25,-7.47 -12.28,-19.11 7.95,-31.2 12.79,-62.99 17.41,-94.78 2.61,-17.94 1.85,-18 -16.11,-22.22 -8.18,-1.93 -16.27,-4.2 -24.46,-6.12 -15.69,-3.68 -22.6,0.62 -24.24,16.79 -1.48,14.64 -4.27,28.99 -6.56,43.43 -4.49,28.31 -12.57,55.85 -15.87,84.43 -2.87,24.87 -7.33,49.93 -13.45,73.99 -6.41,25.16 -9.17,50.85 -15.25,76.02 -7.99,33.14 -12.26,67.22 -20.48,100.49 -7.48,30.31 -4.93,33.59 24.62,43.03 11.64,3.72 23.74,6.65 34.36,-0.69 8.02,-5.54 14,-4.37 20.88,0.53 4.54,3.24 9.1,6.48 13.87,9.37 35.96,21.82 74.21,29.68 114.13,13.73 25.05,-10.02 42.31,-30.85 52.28,-55.01 18.48,-44.79 27.31,-92.12 29.22,-143.44"
         style="fill:#f6951c;fill-opacity:1;fill-rule:nonzero;stroke:none"
         id="path38" />
      <path
         d="m 2973.34,2908.8 c 0.42,-19.8 -3.46,-38.66 -7.22,-58 -4.12,-21.21 -6.54,-42.74 -13.28,-63.46 -11.93,-36.64 -27.4,-71.53 -50.3,-102.8 -8.75,-11.94 -19.5,-19.01 -35.27,-19.27 -18.04,-0.31 -29.2,9.41 -37.46,22.98 -7.92,13.02 -6.8,26.54 2.47,39.38 18.91,26.21 32.54,55.46 42.12,85.92 7.03,22.4 15.44,45.15 13.75,69.68 -0.82,11.88 -0.24,23.87 -0.09,35.81 0.7,57.47 -16.43,109.64 -44.96,159.09 -25.05,43.4 -60.94,75.92 -99.81,105.97 -16.37,12.66 -21.4,31.21 -13.81,50.24 6.68,16.77 25.17,27.12 44.29,24.79 12.45,-1.53 21.75,-9.47 31.05,-16.52 31.36,-23.78 60.75,-49.96 83.57,-82.22 28.64,-40.5 52.81,-83.14 65.79,-132.01 10.48,-39.46 16.7,-79.13 19.16,-119.58"
         style="fill:#f6951c;fill-opacity:1;fill-rule:nonzero;stroke:none"
         id="path40" />
      <path
         d="m 2150.66,2914.64 c 0,16.83 0.03,33.67 -0.02,50.5 -0.02,9.97 1.85,19.26 6.47,28.36 7.63,15.05 7.52,32.34 12.36,48.43 7.34,24.41 20.01,45.82 30.37,68.49 5.77,12.62 11.77,25.13 22.5,34.92 20.83,19.02 44.3,18.35 62.37,-2.61 11.14,-12.92 12.17,-34.38 0.75,-50.85 -22.63,-32.6 -38.57,-68.67 -46.28,-106.85 -6.58,-32.55 -11.2,-66.32 -6.57,-100.16 3.6,-26.31 5.4,-53.01 15.33,-77.98 6.93,-17.41 13.79,-35.01 22.75,-51.4 17.81,-32.59 40.06,-62.09 67.66,-87.19 12.88,-11.71 28.91,-19.38 41.33,-31.83 22.5,-22.56 19,-53.68 -8.45,-68.82 -12.33,-6.79 -25.83,-8.02 -37.8,0.32 -33.3,23.19 -65.47,47.56 -90.46,80.42 -19.87,26.11 -40.22,51.84 -52.91,82.33 -11.42,27.44 -22.63,54.73 -30.02,84.02 -8.4,33.28 -10.31,66.25 -9.38,99.9"
         style="fill:#f6951c;fill-opacity:1;fill-rule:nonzero;stroke:none"
         id="path42" />
      <path
         d="m 466.141,2062.38 c 0.672,9.45 -1.379,18.27 -5.172,26.66 -3.199,7.08 -5.25,14.27 -5.899,22.12 -1.429,17.41 -8.484,22.82 -24.203,16.15 -18,-7.64 -37.14,-11.12 -55.308,-18.02 -22.356,-8.49 -37.661,-28.13 -32.832,-49.32 6.906,-30.31 24.902,-52.95 56.507,-42.75 17.18,5.54 33.907,12.52 50.727,19.13 11.75,4.62 17.676,13.21 16.18,26.03 z m -46.52,229.41 c 12.02,-0.6 24.195,-0.36 35.125,-5.96 25.469,-13.03 37.199,-35.59 44.922,-62.18 7.852,-27.03 8.598,-55.21 16.176,-82.2 6.433,-22.92 5.453,-47.26 13.125,-70.16 4.058,-12.11 8.039,-22.62 22.414,-24.27 7.797,-0.89 10.719,-5.66 11.215,-12.78 0.445,-6.35 2.453,-12.28 4.359,-18.34 3.59,-11.4 -1.363,-19.86 -13.137,-20.79 -16.672,-1.31 -33.629,-3.36 -49.726,4.29 -13.321,6.32 -24.946,3.44 -37.395,-4.67 -29.664,-19.34 -62.719,-30.37 -98.058,-33.2 -41.301,-3.32 -73.075,25.96 -82.176,65.91 -1.246,5.46 -2.391,10.96 -3.86,16.37 -11.789,43.34 5.399,74.77 43.782,95.74 22.906,12.51 48.738,16.03 73.332,23.01 11.398,3.23 22.445,7.8 34.07,10.25 10.656,2.25 11.926,9.93 7.977,17.51 -4,7.68 -5.547,15.59 -7.719,23.68 -3.152,11.74 -12.098,19.6 -24.078,20.34 -16.637,1.02 -33.133,1.47 -49.895,-4.03 -23.765,-7.81 -48.492,-12.83 -72.976,-18.28 -11.399,-2.54 -17.11,1.63 -20.59,12.36 -6.395,19.7 -3.985,26.98 15.98,35.44 43.793,18.55 88.504,34 137.133,31.96"
         style="fill:#f6951c;fill-opacity:1;fill-rule:nonzero;stroke:none"
         id="path44" />
      <path
         d="m 1672.43,2214.07 c -7.76,-0.43 -12.27,-0.52 -15.25,2.97 -9.09,10.62 -16.13,4.99 -24.95,-1.31 -27.91,-19.9 -58.77,-32.91 -93.71,-31 -27.44,1.49 -50.93,10.49 -67.21,35.88 -13.25,20.67 -19.54,43.57 -24.49,66.22 -8.93,40.9 -19.12,81.63 -24.29,123.4 -2.11,17.13 -9.13,33.66 -9.8,51.34 -0.58,15.25 -0.29,15.61 15.33,18.95 10.26,2.2 20.3,5.54 30.6,7.47 13.36,2.5 18.47,-1.19 19.27,-14.79 1.94,-32.97 13.2,-64.16 17.86,-96.45 3.6,-24.99 10.28,-49.22 14.1,-74.05 0.96,-6.25 1.79,-12.39 4.4,-18.3 16.42,-37.31 40.8,-47.04 79.28,-31.45 11.61,4.71 23.78,7.97 34.35,15.26 13.22,9.13 14.75,14.61 10.97,29.7 -5.58,22.31 -10.42,44.85 -14.41,67.49 -5.79,32.92 -10.25,66.05 -18.35,98.56 -3.03,12.17 -4.18,24.85 -5.53,37.36 -0.85,7.79 2.92,14.54 10.52,16.13 12.99,2.69 26.13,5.63 39.54,5.01 9.42,-0.44 14.73,-4.1 15.7,-15.29 3.08,-35.53 12.59,-70 18.98,-104.98 4.64,-25.4 9.32,-50.79 14.28,-76.14 5.48,-28 9.83,-56.22 15.4,-84.19 2.83,-14.2 0.83,-19.51 -12.89,-22.66 -10.9,-2.51 -22.07,-3.85 -29.7,-5.13"
         style="fill:#f6951c;fill-opacity:1;fill-rule:nonzero;stroke:none"
         id="path46" />
      <path
         d="m 1856.25,2382.46 c -13.33,0 -26.66,-0.14 -39.99,0.03 -33.42,0.42 -56.78,19.31 -67.73,51.52 -7.7,22.64 -11.42,44.58 -2.58,67.55 6.79,17.65 18.71,31.17 34.19,41.27 18.27,11.93 37.77,20.24 60.34,21.92 19.36,1.44 37.89,9.57 57.85,8.86 14,-0.5 28.06,-0.11 42.07,0.44 11.34,0.46 16.5,-5.84 19.15,-15.62 0.19,-0.67 0.32,-1.36 0.48,-2.04 7.81,-34.07 5.28,-38.23 -29.34,-37.19 -30.63,0.91 -59.55,-8.62 -89.44,-11.97 -10.04,-1.12 -18.81,-8.3 -27.36,-14.77 -14.24,-10.75 -9.44,-38.18 8.05,-45.53 8.56,-3.59 17.46,-4.69 26.7,-4.87 30.76,-0.6 61.57,0.9 92.18,-4.39 25.83,-4.47 44.18,-16.51 55.05,-41.63 9.32,-21.56 9.93,-43.29 8.71,-65.7 -1.31,-24.22 -12.55,-41.31 -33.95,-53.85 -36.57,-21.42 -75.79,-30.84 -117.63,-31.62 -16.83,-0.32 -33.67,-0.96 -50.5,-0.83 -14.56,0.11 -16.56,2.31 -18.52,16.72 -0.18,1.39 -0.28,2.8 -0.43,4.19 -3.45,32.44 -2.51,33.51 28.95,34.21 30.83,0.68 61.61,0.97 91.4,11.25 7.3,2.52 14.07,5.24 20.93,8.79 16.29,8.41 16.89,20.66 14.06,40.1 -1.52,10.38 -17.57,22.23 -30.03,22.71 -17.52,0.67 -35.07,0.17 -52.61,0.17 0,0.09 0,0.18 0,0.28"
         style="fill:#f6951c;fill-opacity:1;fill-rule:nonzero;stroke:none"
         id="path48" />
      <path
         d="m 129.859,1918.89 c -59.1012,0.07 -90.9059,25.8 -108.7809,80.52 -5.6328,17.25 -8.0351,35.51 -16.00779,52.06 -2.05078,4.26 -2.85547,9.54 -2.78906,14.33 0.375,27.28 -3.65234,54.3 -1.785156,81.83 2.484376,36.67 21.789106,61 52.210906,75.28 39.0547,18.34 81.59,23.84 124.832,22.75 9.024,-0.23 15.441,-3.04 16.039,-12.54 0.735,-11.76 11.41,-23.43 4.547,-34.42 -6.828,-10.94 -20.898,-3.97 -31.422,-6.69 -24.215,-6.25 -50.012,-5.8 -72.6014,-19.14 -16.8672,-9.96 -27.9532,-22.04 -28.461,-42.92 -0.9726,-39.69 3.1953,-78.2 20.961,-114.38 14.3204,-29.19 34.2854,-38.54 66.1954,-34.86 23.82,2.76 46.156,10.23 69.043,16.1 11.547,2.96 18.004,0.97 21.074,-9.89 8.211,-29.06 6.156,-40.48 -22.918,-46.7 -15.766,-3.38 -30.187,-10.71 -45.793,-14.87 -15.812,-4.21 -31.312,-7.46 -44.344,-6.46"
         style="fill:#f6951c;fill-opacity:1;fill-rule:nonzero;stroke:none"
         id="path50" />
      <path
         d="m 3222.85,1033.04 c -0.37,6.46 4.26,12.37 13.42,12.4 24.14,0.08 45.92,13.3 70.28,11.95 3.99,-0.22 8.19,1.44 12.13,2.75 14.14,4.67 24.1,0.77 23.75,-12.58 -0.66,-25.13 12.88,-47.47 11.79,-72.412 -0.35,-7.867 3.88,-14.777 7.16,-21.796 3.54,-7.543 0.39,-13.282 -7.31,-13.743 -20.39,-1.218 -38.7,-12.609 -59.62,-11.16 -10.75,0.742 -20.17,-5.539 -30.4,-7.89 -15.03,-3.457 -22.96,-0.469 -24.16,14.293 -2.62,32.39 -12.62,63.257 -17.04,98.188"
         style="fill:#f6951c;fill-opacity:1;fill-rule:nonzero;stroke:none"
         id="path52" />
    </g>
  </g>
</svg>
